<svg xmlns="http://www.w3.org/2000/svg" id="svg1322" height="520pt" width="720" version="1.0"><defs id="defs1325"><style id="style6" type="text/css">.str4{stroke:#000;stroke-width:1.13778}.str2,.str3{stroke:#000;stroke-width:1.13808}.str2{stroke-width:1.13818}.str6,.str8{stroke:#000;stroke-width:1.13828}.str6{stroke-width:1.13848}.str5,.str7{stroke:#000;stroke-width:1.13858}.str7{stroke-width:1.13878}.str0,.str1{stroke:#000;stroke-width:1.13888}.str0{stroke-width:2.40736}.fil0,.fil7,.fil8{fill:none;fill-rule:nonzero}.fil0,.fil7{fill:#000}.fil7{fill:#fff}.fil1,.fil4,.fil6{fill:#009;fill-rule:nonzero}.fil4,.fil6{fill:#600}.fil4{fill:#8a8a01}.fil2,.fil3,.fil5{fill:#939301;fill-rule:nonzero}.fil2,.fil5{fill:red}.fil2{fill:#fc0}</style></defs><g id="Ebene_1" transform="translate(1399 -77.42)"><path id="path1364" d="M-1183.8 149.2c-2.3 1.17-6.1.87-8.7.3-1.2-2.04-4.4-3.47-5.2-5.8-2.1-1.45-4.4-.87-5.9-1.18 0-2.29 4.1-.57 3.8-2.59 3.8-.59 7.3-1.74 11.1-2.91l-.6-.32h2.6c-.3 0-.3 0-.6.32 2.1.87 3.2 1.73 4.4 2.91 1.2 3.2.8 6.38-.9 9.27m-61.9 26.14c-1.2.6-2.1 1.16-2.3 1.46h-5.9c1.5-1.16 2.7-2.34 3.5-4.36.6-1.74-1.4-3.47-2-5.81-1.5-.27-2.9-1.16-4.9-.27-.4-1.74 2.9-.29 2.6-2.34 2-.29 4.6-.29 6.9 0h-.2c-.6 1.73 3.1 1.16 2.6 2.61 1.2 1.16 1.7 2.91 1.4 4.93.3 1.76-.9 2.33-1.7 3.78zm518.94 101.08c2.04-4.39-2.03-7.86-3.48-11.05-4.95-5.52-10.76-8.99-15.71-13.64-4.08.28-5.23-3.2-8.12-3.79 0 .3.28.89-.3 1.16 3.19 2.04 6.69 4.95 9.89 7.56 1.43 3.48 4.66 3.79 5.22 6.67.86 2.04 2.02 5.23.3 7.28-.86-.59-2.91-.31-2.91-1.74-4.36-.31-6.99-1.49-11.07 0-2.3 1.74-3.47 5.51-2.9 8.41-.27 3.76 4.38 4.63 2.9 8.72 0 1.15-1.74 1.72-1.13 2.33-2.04 1.72-5.84.86-8.72.57-.61-2.04-3.79-1.18-5.84-1.75-.59-.57.88-.29 0-.86-6.67-1.48-13.38-4.38-20.33-6.4l.57-.57c-4.65 0-9.02-2.04-13.38-3.22-7.83-1.14-15.4-.86-23.55-.28-4.06.89-8.73 2.32-11.92 5.22-7.57 7.29-11.9 16.27-16.86 24.42-2.02.29-1.16 3.76-3.5 2.9 1.16-4.65 5.82-9.03 5.82-14.23.59-3.19-1.14-7.55-2.62-9.59-4.33-3.19-7.24-8.72-11.33-12.2-3.78-1.73-7.27-4.34-10.74-6.38 0 0 .29-.3.56-.3-.88-.56-2.04-.86-2.9-.29-.27 2.01 2.9.59 2.63 2.63.87 0 1.44.56 2.3.56 4.08 4.64 7.86 7.86 11.63 12.48-1.16.87 1.18 2.04.61 2.64 1.14 4.91-.61 9.27-4.09 12.48-3.2 3.17-7.27 5.51-10.45 8.98-11.63 13.95-4.95 31.95-.29 47.08 4.34 12.77 11.63 26.39 11.03 39.17-1.74 7.84.28 16.86-5.81 23.51-2.9.31-2.9 3.21-5.22 3.21l.56.6c-1.74.87-5.51 0-5.22 2.01l-14.83.31c-4.09-2.03-6.67-2.64-10.77-4.36.3-.3.3-.3.59-.3-7.56-4.66-13.38-10.46-19.19-15.09l.3-.32c-3.77-2.9-7-6.38-10.77-8.71l.3-.27-2.92-1.15.3-.3c-5.54-2.05-9.88-7.56-16.28-9.01l-7.56-1.16h.29c-8.16-.58-16.88-4.05-24.72-5.22 0-.11.16-.11.33-.11-2.02-1.27-4.75-.8-6.71-1.64.3 0 .3-.29.57-.29-1.75-1.18-4.35-.57-6.38-1.45.3-.3.57-.3.85-.3-1.74-.56-3.47-1.15-5.47-1.44 0 0 .1-.05.2-.08-4.3-.69-5.3-3.39-10.1-3.39l.3-.32c-6.1-2.59-12.3-4.34-17.8-6.67l.3-.57c-1.1-.58-2.9 0-4.1-1.47l.3-.27c-2.9-.3-4.9-2.91-7.2-2.91l.5-.59c-5.2-1.73-10.4-5.5-14.2-8.11l.3-.31-2.3-1.45.3-.27c-.9-1.18-3.5-.29-2.9-2.04h.3c-2.9-1.47-4.7-3.19-7.3-4.37.3-.28 0-.88.3-1.15-4.1-3.78-9.3-6.1-12.5-10.47-1.2-4.63.5-10.73 3.7-13.91 2.6-2.04 5-4.95 7.6-6.1l-.3-.32c4.7-.57 6.7-2.59 11.4-3.18v-.29l2.3-.86c.8-2.04-2.3-.6-1.8-2.64-3.7-2.01-7-2.87-11-4.33v-.31l-3.8-1.73c.3-.86-1.4-1.46-1.2-2.34 1.2-.87 2.9-.56 4.1-.27 3.8 2.04 8.2 3.47 12.2 3.76 5.6-1.44 10.2-.29 15.1-2.01 2.9 1.72 8.2 1.72 11.4.86 1.7-.57-.9-1.46-.9-2.34-2.3-1.13-4.4-3.17-6.7-4.65l.3-.27c-3.8-2.63-8.4-1.75-12.2-2.63 0 0 0-.27.3-.27-1.5-1.17-3.8-.6-5.5-1.46-.3-1.18-3.8-2.9-5.3-3.47.9-1.18-2.3-.61-1.4-2.63.9-.88 2.6-.57 3.8-.27 2.3 1.43 6.4 1.72 9.6 2.61 2.6-1.75 7.2-.32 9-2.61 8.1-.61 17.1.57 24.7-.89 1.1-2.31-2.6-3.19-3.8-4.05-1.4-.31-3.5 0-4.3-1.17l.2-.32c-2.6-.86-4.9-2.01-7.2-3.17.1-.28.2-.31.4-.31-6.2-.14-11.9-2.87-17.9-2.59-1.7-1.17-4.3-3.21-6.4-5.22.3-.89-.6-1.18.6-1.48 2.9-.27 6.4.3 9-.56l.6-1.19c4.1-.56 8.7 0 12.2-1.42-1.4-.87-2.9-2.34-4.6-2.61.2-.3.2-.3.2-.59-4.3.29-6.9-2.34-11-2.34-.3-2.02-4.1-.86-4.4-3.76 1.8-2.03 6.7-.89 9.9-.89 0 .31-1.4 0-.3.31 5.6 1.16 10.2.87 15.1-1.74.9-1.16 3.8-.59 3.8-2.34 8.2-1.72 15.4 4.38 23.02.87-.3 0-.62 0-.62-.27l2.63-1.17c.6-1.15 0-1.15 0-2.6-6.43 0-13.03-6.97-18.63-5.54-4.9-2.61-11.9-.56-17.4-2.04 0-1.73-4.7-.87-6.4-2.02l.6-.57c-3.2-.32-5.6-2.33-7.6-4.08 5.5-.87 11.9.59 18-.3 5.3-1.74 10.2-2.61 14.9-4.65 7.2-.27 13.62.33 21.19-.57-.59-1.72 2.05-.85 2.91-1.72-.86-.88 1.75-.88.86-2.33-2.91-.3-6.4-2.05-9.01-2.61l.3-.29c-3.21-1.19-5.85-3.48-8.75-3.21l.3-.27c-7.5.27-15.4 1.16-22.7.57-4.6-1.74-9.3-4.36-13.3-7.26 1.7-1.75 2.6-2.63 4.3-3.5.6-2.9-3.8-1.72-4.1-4.05 5.9-1.46 11.1-2.32 16.6-4.36 0-1.45 3.5-1.73 2.9-2.61 5.3-1.75 11.7.27 16.3-1.75 4.4-.27 6.42-1.45 9.62-4.06.28-4.35-5.82-2.02-8.72-3.2-6.1-3.47-13.7-5.24-20.7-4.62-5.2 2.29-11.9 1.43-18 1.15-2.3-2.33-5.8-1.15-8.1-3.49.6-1.46 2.9-2.04 3.2-2.91 5.2-2.6 10.7-3.47 15.4-5.51-.3-.29-2.1-1.47-1.2-1.16-3.5-1.74-6.7-1.74-9.9-3.22-5.5-.86-11.9-.28-17.4-1.13l.3-.3-4.1-1.15c.3-1.18 2.4 0 2.9-1.18 0 0-.5.29-.5 0 3.4-.87 7.5-.87 11.3-1.17 7.2-2 13.1-7.55 19.7-7.84 4.1 2.04 7.9-.57 11.9-.57.7-1.45 3.3-2.6 3-4.64h-7.6c-.9-2.35-4.9-.87-7-2.03 0-.32.3-.32.6-.32-1.7-1.72-4.9 0-5.5-2.29l-8.1-.88s.2-.3.5-.3c-14.2-3.2-28.5-.56-42.4-1.15 0-1.45 2-1.75 2.3-2.61 4.7-2.64 9.6-3.2 14.5-4.95l-.2-.29 4-1.16-.8-.57 2.9-1.18c.6-.86 1.7-2.9 2-4.06-.3-.27-.9 0-1.1-.27-.9.56-.9.86-.9 1.43-3.8-.87-7.3-1.73-11.1-1.73-.6-2.04-4.3-.59-5.2-2.61-7.9-1.47-16.9.27-24.2-.3 4.4-3.78 11.1-4.08 14.3-8.4-7.6.85-16-.3-24.4-1.19.3-.29.6-.29.8-.29-2 0-4.3-1.159-6.3.58-.6 8.42-3.6 15.41-4.4 24.12 1.2 0 1.7.57 2.6.87-.6.29 0 .29-.6.56 2.9-.27 2.6 2.64 5 2.91 3.5 3.2 7.2 6.66 10.7 9.89 3.5 4.92 7.9 9.87 11.4 15.09 4.9 7.25 8.4 14.52 11.9 22.66 9.6 22.64 6.7 51.09 2.6 76.66-2.9 17.69-8.4 34.56-13.1 51.98-.9.29-1.4 1.16-2.3.57.6-2.61-2.9-2.89-2.3-5.22-4.7-4.06.3-10.44.8-15.38 7-25.84 16.3-55.48 12.3-81.32-.6-2.33.3-4.38-.4-5.81-2.9-12.47-5.2-22.95-11.6-33.69-3.4-8.7-11-14.81-15.4-22.07-3.8-2.31-5.8-5.51-9-8.42-3.5-.29-4.7-4.08-7.8-4.65.2 0 .2-.29.5-.29-2.9-1.73-6.4-3.47-9.3-5.51.3-1.16 2.1-.6 2.9-.6 4.7-.56 3.8-5.78 6.1-8.71.9-10.73 4.4-22.936 4.1-32.8-3.8 7.552-5.8 18.31-13.6 23.23-2.1 3.49-5.6 3.2-7.3 5.53l.3.27c-2.3.6-2.9 2.34-5.6 3.2-2.6 2.61-1.7 7.85-5.8 7.54-2.3-2.02.6-6.97 1.2-9.58 1.7-4.06 6.7-3.76 9.9-6.38v-.29l3.8-1.45c.6-.59.9-1.16 1.1-2.01l-8.1-1.19s.3-.29.6-.29c-4.1-.57-9-.86-13.4-.27.3.85-.9.85-1.2.85-5.2 2.62-5.5 9.87-6.4 13.64-4 .89-8.1 3.2-12.5 4.95l.3.29c-3.2.3-4.3 2.61-7.5 2.91l.3.29-4.4 1.44c.3 0 .6 0 .6.31-6.1 2.9-11.6 5.49-17.2 8.13l.3.26-4.3 1.48.2.3-3.1 1.44.2.3c-3.4 1.43-7.2 2.61-9.6 4.93l.4.27-3.5 1.18.2.3c-3.7 2.03-9 4.93-11.9 6.96-5.2 2.89-10.4 3.49-15.7 4.94l.3.27c-3.2-.56-3.8 2.91-6.7 3.2-1.1 1.45-3.2 3.47-3.8 5.52-6.4 7.28.3 15.7-2.9 22.95-.3 2.91 4.4 1.14 5.3 2.61 7 1.16 13.6 0 20.6 1.16 0 0-.3.27-.6.27l6.7.32c2.3.57 1.2 2.02 1.5 3.47-6.4 2.63-11.7 5.82-17.8 8.15.3 0 .6 0 .9.29-2.3.86-4.3 1.43-6.4 2.29-1.1 2.04 2.9 1.48 2.1 3.22 2.6.87 1.7 1.72 4.3 2.59-.3 0-.3.32-.6.32.6 1.16 2.1.56 3.2 1.45-.3.28-.6.28-.8.28.8.85 2.9.28 3.1 2.03 4.7 2.05 9.9 1.16 14.9-.3-.3-1.45 1.4-.88 2.3-1.45l-.3-.28c2.1-1.17 2.9-2.92 5.6-3.48l-.4-.29c3.3-2.05 6.7-4.36 10.2-6.38 6.1-2.62 13.1-2.9 19.2-4.38 3.2 2.34 6.4 5.81 9.6 7.86 4.4-.3 5.2 2.33 9.6 1.72 5.5-.87 11.6-2.29 16.6-5.2l-.3-.29c3.2-.88 4.3-4.09 7.2-4.66l-.3-.29c3.5-2.32 4.4-7.26 8.5-7.55 1.5 2.04-.9 4.35-2 5.8-1.5 2.34-4.1 4.65-6.2 7.56-3.4 3.2-6.1 4.06-9 6.37-3.4 0-4.9 3.21-8.4 3.21.3 0 .9 0 .9.28-2.6.9-6.2.3-8.4 1.75-2.7.3-4.4.86-5.6 2.9-5.2 5.81-12.2 10.76-16.5 17.14-13.7 14.81-22.7 32.83-33.8 49.96-1.7 2.3-4.3 4.33-6.9 6.66-2.7 3.79-6.2 6.71-8.8 10.76-3.8 3.48-4.9 9.01-7.2 13.93-3.3-2.04-6.2-5.23-9.6-6.97 0 0 .3-.29.5-.29-2-1.16-3.7-2.33-5.2-3.19h.3l-2.6-1.73.3-.32c-3.3-.28-1.5-2.02-4.7-2.91-6.4-6.66-12.5-14.51-18-22.05-.6-4.08-2.9-7.55-4.1-11.31-1.1-.31-2.3-2.05-2.3-3.21-3-.55-2.4-2.63-5.4-2.86-7.2 3.68-16.4 0-22.2 7.22-1.5 4.65-4.7 8.12-6.7 13.37-4.6 6.37-12.5 12.18-16.3 18.84-4.1 2.63-5 5.54-8.7 8.15l.3.29c-3.5 2.91-6.7 5.82-10.2 8.71-6.7 3.19-7 12.21-8.7 17.71.6 4.37 1.4 6.12 2.3 10.74 2.3 8.15-3.2 14.81-7.3 20.33-3.7 2.34-8.1 4.37-12.2 4.37.6 0 .3.57.3.86 3.5 0 6.7 0 9.6 1.17.9 1.15 1.5 3.48 1.8 4.94-1.5 4.36-1.5 11.61-2.7 16.53l1.5.89c-.3.28-.6.57-.6.87 5.8 1.15 12.2.27 17.5-.3.5-1.46 4-.86 5.2-1.46 2.6-1.45 6.1-2.3 9.3-3.47-.3-1.73 3.8-1.45 3.5-2.9 4.9-3.79 4-11.93 5.5-17.13l-18.3-.61c.9-1.42-1.2-2.58 0-4.05 4-1.43 9-2.61 13.6-4.04.6-3.52.9-7.56 3.8-9.6 1.8-3.79 6.2-5.22 9.4-7.82 3.1-1.19-.9-4.38 0-6.7-1.5-1.44-1.8-3.5-2.7-5.22-2.6-2.33-4-4.65-7.3-5.8-.2-2.04 2.1-3.5 3-5.52 8.4-8.14 17.1-14.81 24.4-23.22.5-.62 1.4-.89 2.3-.62 3.2-.86 2.3 1.77 4.7 2.63 2.6 4.65 7.2 7.86 9.3 11.62 3.2 5.8 7.5 10.46 8.7 16.26 4.1 6.97 3.5 13.93 6.1 21.2.6 1.44 1.7 2.33 2 3.79 3.2 2.31 9 4.92 13.4 6.36 4.4-.56 4.9 3.2 9 2.34.3-6.39-2.3-13.95-.3-21.5 1.2-2.32 2.1-5.51 3.5-8.41 1.2-.87 1.7 0 2.6.56-3.2 9.59-.5 18.61 1.2 27.6-.6 3.48 1.7 5.52 2 8.72-4.6 3.47-9.3 1.15-14.2 1.15.6-.58 1.1-.3 1.7-.3-5.2-.56-9.6-2.33-14.8-3.19.3 0 .3-.29.6-.29-8.7-.27-15.2-7.24-23.6-8.42l.6-.29c-3.2-.57-6.4-1.75-9.3 0 .3 0 .9-.28.9.29-5.2 1.47-6.7 9.01-8.8 13.36-6.3 8.15 1.8 15.41 2.1 23.22.6 3.79 2.3 7.58 2.3 10.74 1.2 14.53 1.5 29.65 3.5 43.88 1.2 3.19 4.7 5.22 5.5 8.39 2.7.32 4.4 2.9 7 2.9-.3.32-.3.32-.6.32 1.2.88 3 .28 3.8 1.72h-.3c2.6.6 3.8 2.62 6.4 3.21l-.3.29c2.1 1.75 3.8 2.6 5.5 4.65.9 2.32.6 4.94 2.1 6.97.8 4.91 1.4 9.29.3 14.78 2 1.21 1.7-2.01 3.2-2.28l-.3-.3c1.2-1.47 3.2-.59 4.6-.59 2.6 3.49 6.1 5.81 9.3 8.99.9 1.47 2.1 2.91 2.9 4.64 1.2.3 3.5.89 4.4-.54 1.2-1.46 2.3-2.9 3.5-4.67 4.9-11.91 12.5-27 4.4-38.89-2.7-1.77-3.6-4.68-5.8-5.8-3.2 7.5-6.7 11.88-9.7 19.44-1.4 0-3.2-.32-4.3-.89.9-6.94 4.3-13.63 7.3-19.76-2.4 0-4.7 0-6.4-1.17-.6-1.12-1.8-2.3-2.7-3.44-1.7-7 0-12.49 1.8-20.64-.6-.56-2.3.32-2.1-1.16l-10.4-1.14c.8-.29 1.7-.29 2.6-.29h-6.7c.3 0 .9 0 1.2.29-3.2-.29-6.1 1.74-8.4.26-1.8-11.04-1.8-22.08-2.1-32.8 6.7-2.31 13.4 2.34 20.4 3.78-.4.28-.6.57-.9.57l4.1 1.18-.7.56c3 .3 3.9 2.62 6.8 2.91l-.9.87c1.4.29 2.9.29 4.1.85l-.9.89c1.2.32 2.6.32 3.5 1.16l-.6.58c2.6 0 3.5 2.62 5.8 2.62l-.6.56 3.2 1.49-.5.55c3.4-.55 2.9 2.91 6.1 2.61l-.6.89c1.1.27 2.3.27 3.5 1.16-.3 0-.3.3-.6.3 4.6 2.33 9.6 4.36 13.9 7.26 4.7 1.15 9.6 2.89 14.6 4.92 3.5.29 8.1 1.47 11.3 0 .9-2.03 2.9-3.46 3.8-5.22 6.1-9.01 6.4-19.45 7-29.34.5.59 1.7-.87 2.3.29 2.6 11.91-.6 24.13-1.2 36.03 3.2.27 3.2 3.19 6.4 3.19l-.6.57c.9.58 3 .58 3 1.76l3.5 1.42-.4.3 2.9 1.18-.8.88c1.2.28 2.6.28 3.8.84-.9.31-.3.6-.3.87 1.1 0 1.7.88 2.9 1.2l-.6.28c3.2 2.63 7 2.63 9.6 5.21h-.3c3.5.86 6.4 3.5 9.6 5.24h-.3l4.1 1.43-.6.58 4.1 1.19-.6.59c1.4.27 2.9.27 3.8 1.43h-.3c.8.89 2.6.89 3.7 1.15l-.2 1.17c3.8-1.17 4 2.89 7.8 2.6 0 0-.3.29-.6.29 5.8 2.62 12.8 5.25 18.3 6.41l-.2.58c7.8.29 16.5 4.92 23.5 7.24 6.1-.27 8.7 2.63 14.5 2.63 0 0-.2.27-.2.58 6.6 1.17 12.7 2.32 19.2 2.9 0 .29-1.2 0-.7.29 3.8 1.17 8.2.57 12 1.45l-.3.32c10.2-.32 18.6 3.18 28.8 3.18-.3 0-.3.27-.6.27l3.2 1.15c1.2 9.04 1.4 17.15 2.6 25.86 1.2 3.19 2 6.96 2.9 9.87 3.2 2.64-1.7 3.22-.3 5.81-1.4-.56-2-2.9-3.2-3.78-2-4.07-2.9-6.98-5.2-10.42-2.1-5.53-4.1-11.07-5-16.58-.2-4.06-6.6-1.72-9.8-2.9.5-.31 1.4-.31 2-.31l-17.2-1.12c0-.21.3-.28.5-.32-4.3-1.17-9.5-.88-13.5-1.73.2-.27.6 0 .8 0-1.7-.87-3.5-1.16-5.5-.87 3.8 11.02 8.2 22.95 15.1 32.54 4.7 4.34 8.8 9.56 12.5 13.93 2.6-.29 1.5 2.61 3.8 2.29 2.3 5.25 8.7 8.15 10.8 13.95.3 12.81 2 22.96-1.8 35.74-9.6 11.6-16.8 26.13-27 35.73-3.8 3.74-8.5 5.81-12.5 9.55-6.4 4.08-9.9 12.21-15.4 17.13-5 2.04-11.4 4.68-16.9 4.68-.3 1.42 1.8 1.73 1.8 2.9.3 8.98-7.6 16.81-8.5 25.84 2.3.29 4.4 2.58 7.3 1.72 5.8 2.34 13.6 1.18 20.3.86 3.2-2.02 7 .32 9.6-2.29 6.4-2.9 10.5-9.32 12.5-15.99-.5-.31-1.7-.58-1.1-.84-5.6 0-11.4-2.07-16.3-2.37-.6-1.43 0-3.76.6-5.5 6.1-1.43 14.5 2.07 19.2-2.05l-.3-.27c2.6-2.01 4-5.21 7.5-5.81l-.3-.29c5.6-1.46 11.7-4.04 16.9-4.04v-.32l4.4-.57c.5-4.09.5-10.17-2.4-13.08-.5-1.75-2.9-2.62-2.3-4.64 7.6-9.58 14.6-21.21 24.1-28.44 3.5-2.31 7.6-3.21 10.52-4.94 4.93-3.19 10.15-5.82 13.64-9.31.58-1.74 4.11-5.21 2.32-8.11-1.13-7.3-2.6-14.81-3.47-22.39 1.15-.29 2.34 0 2.91.89-.3.31-.3.31-.57.31 4.05 1.12 6.95 5.18 11.02 6.66-.27 0-.27.27-.57.27 3.2.59 4.66 3.79 7.86 4.67l-.87.86c1.44.29 2.62.29 4.04.87-.26.31-.56.31-.85.31 5.54 2.01 10.46 5.5 16.55 6.68-.27 0-.27.27-.56 0 1.18 1.72 4.95.27 5.52 2.28 6.68 7.55 14.53 15.73 20.64 23.85 2.05 3.19-.29 5.52-1.15 8.41-3.78 13.34-10.77 24.68-17.75 36.01-7.56 7.86-13.08 13.66-18.89 22.64-1.46 1.45-3.2 3.49-5.52 4.66l.26.27c-6.08 3.21-12.48 6.11-18.87 7.56 1.43 1.15 2.62 3.48 2.33 5.26-2.06 7.24-4.96 13.63-9.3 18.84-1.48 1.49-1.18 2.62.3 3.5 3.17.89 5.81 1.72 9.29 2.32l-.29.27c8.43 1.21 19.46 1.21 27.9 0 8.43-2.59 13.66-9.28 16-17.99-.86-.3-2.05-.3-2.05-.87l-10.15-1.15.27-.32c-2.61-.86-6.38 0-8.99-1.16 1.13-2.02 1.72-4.33 3.47-5.51 5.82 0 12.5-.28 17.15.29 3.2-4.03 5.54-7.83 9.59-11.31 3.2-2.32 7.29-4.07 10.76-4.33l-.26-.33 11-1.16c1.76-4.64.62-9.59-2.59-12.49-.58-1.44-2.34-3.45-3.49-3.77-1.16-1.45-2.01-3.17-1.75-4.95 3.2-8.7 6.97-16.53 11.07-25.55 6.1-12.75 18.87-20.32 21.21-34.84-.3-4.03 2.04-9.31-2.62-11.32-1.47-2.01-2.9-3.2-3.77-4.33-2.9 0-1.77-2.64-4.38-2.64-2.9-3.17-5.82-7.55-8.42-10.45-4.07-6.97-8.72-11.91-12.23-18.31-1.75-1.14-3.77-2.61-4.34-3.77l-.31-2.03c6.69-13.37 16.01-25.85 22.09-38.62 6.12-13.65 15.13-33.1 6.98-49.64 1.18-.62 2.34-.62 2.63-1.77h4.66c2.05 3.49 3.48 5.27 5.22 8.44 3.21.27 1.76 2.31 4.66 2.63l-.88.55 3.79.59c.59.88-.88.56 0 1.16 1.45.28 2.9.28 4.36 1.15-.28 0-.28.29-.57.29l4.33 1.48c-.28 0-.28.28-.55.28l3.17 1.45c-.26.29-.26.29-.57.29.57.59 2.91 1.16 1.73 2.02 4.09 4.67 0 12.21-2.02 17.72 3.77-4.33 5.54-10.76 9.32-14.53.86-3.46 1.16-6.64 1.16-10.15.86-.28 1.45.28 2.01 1.15.59 2.91 3.2 3.5 4.07 5.54 4.09 1.16 8.45.27 12.81.85 0 1.78 3.48 1.18 2.91 2.91h2.04c.57-3.19-.32-6.39-.88-9.3-2.91-4.33-8.16-7.24-9.03-12.75-2.04-1.77-3.76-3.2-5.21-5.21 1.15-.89 3.17-.33 4.65.54l-.59.58c1.15.3 2.63.3 3.76 1.19l-.56.27c2.62 1.45 6.39 1.17 9.29.31 3.79-.31 4.38 2.91 8.15 2.32 1.17-.62 3.49-.29 3.21-1.77l9.58-.86c.89-2.31-1.44-3.8-2.01-5.49h.27c-2.89-1.2-5.79-2.63-8.14-3.22-1.45-1.46-2.91-2.58-4.09-4.36-1.16 0-2.59-.29-3.76-.6-.31-.84-.87-2.01.29-3.16 3.47-.87 7.56-.6 10.77.55 0 1.2 2.61.87 3.47 2.61 5.52 1.78 8.16-3.44 11.62-4.03-.28 0-.55 0-.86-.29 1.17-1.18 3.21-.32 4.64-1.18-1.16-1.16-.86-3.75-3.18-3.46-.88-1.75-4.06-.88-5.81-1.75l.59-.6-3.8-1.16c-.58-1.74-2.91-3.17-3.2-4.06-2.05-.89-2.61-2.63-4.95-2.9 0-.59.32-.59-.26-1.16 2.3-1.15 5.21-.26 7.55-.59.57-2.04 3.48-1.16 3.48-2.3 3.5-1.76 6.99-2.91 10.19-2.05.87 1.45 4.34.88 6.39.29l-.3-.29 2.9-.86c-.56-1.76 1.46-1.48.87-2.91-.56 0-1.74 0-2.01-1.16l.27-.32c-4.07-2.01-7.85-3.75-10.75-6.94-6.7-1.77-13.67 1.14-19.76-.59-1.17-1.75-4.66-1.45-6.98-2.04 0-.29.31-.29.58-.29-3.8-.58-7.57.88-10.48 2.03h.3c-2.03 0-3.77 1.76-5.52.6 2.01-2.63 3.76-4.95 6.69-5.8 1.74-1.75 5.21-3.5 8.11-4.07l-.27-.31c6.4-1.73 14.54.31 21.24-1.44l-.29-.29 4.07-1.18-.31-.28c2.62-.86 3.48-2.3 5.25-3.76 4.05-.29 7.54 1.13 11.34.86 2.32-1.75 5.81-2.02 6.97-4.65 2.02-.88 4.66-.57 6.68-.26 3.2.86 3.2-2.35 6.11-2.35 0-1.18 1.45-1.45 2.02-2.6-4.07-1.75-7.83-4.95-12.19-7.28-2.05-2.3-6.39-.58-9.91-1.44 0-2.33-2.29-.29-2.9-2.03 3.49.56 6.42-2.02 9.6-2.02 0-.32.3-.59 0-.89 3.21-2.01 6.4-3.76 9.6-3.47 2.33.27 7.27 4.04 11.05 2.61-.29-1.75 2.04-.86 2.91-1.75-.57-.86 1.16-1.75.85-2.62-1.42-.28-3.2-.28-4.63-.87-.59-.57-2.91-2.32-4.08-3.18 0-.3-.3-.88 0-1.15-3.48.56-2.61-2.64-5.82-2.64 0 0 .07-.06.21-.12-3.36-1.01-6.45-1.04-10.09-1.04-3.47-2.9-7.86-6.09-12.51-7.24.88-3.21 4.65-.88 7.29-1.19-.3.31-.3.31-.6.31 2.35 1.45 5.82.88 8.43.57 4.36-1.75 7.57-4.92 12.22-4.35 1.17 2.31 5.23.29 6.11 2.6 4.35.87 8.99 0 11.9-2.04.3-1.13 2.34-2.29 2.05-3.47-4.06-.29-6.97-1.72-10.17-3.19-1.73-2.32-4.66-3.18-6.11-5.82-1.16-.85-3.48.3-3.78-1.72l-17.44-.58c-3.21-1.75-5.52-3.77-9.02-3.77 0-.31.59-.31.86-.31-1.42-1.15-4.33-.58-6.08-1.46l.87-.57c-2.92-.86-6.41-.29-9.32-1.16 1.48-2.9 5.81-2.9 7.85-4.65 4.07-.29 8.46-.29 12.23 0 2.61 2.62 7.83.57 10.47 2.62 6.68.86 12.48.58 19.47.29 1.45-1.16 4.06-2.02 5.8-3.2.9-1.43 1.19-2.91 2.92-3.77 1.74-3.77.29-10.17-2.35-13.36-.57-3.2-5.19-4.92-4.33-8.72 5.22-.86 9.58 3.8 14.53 1.46 0-.28-.59-.28-.59-.57l2.91-.89c-1.16-1.15.6-1.44.87-2.01z"/></g></svg>